<?xml version="1.0" standalone="no"?><!DOCTYPE svg PUBLIC "-//W3C//DTD SVG 1.1//EN" "http://www.w3.org/Graphics/SVG/1.1/DTD/svg11.dtd"><svg t="1516941568049" class="icon" style="" viewBox="0 0 1024 1024" version="1.1" xmlns="http://www.w3.org/2000/svg" p-id="2500" xmlns:xlink="http://www.w3.org/1999/xlink" width="32" height="32"><defs><style type="text/css"></style></defs><path d="M940.606685 920.725892c-43.774993 0-72.529897-13.641695-102.973256-28.086685-25.675776-12.181437-52.150754-24.704658-86.192058-27.309996l89.181135-198.959378c12.491499-27.865651 2.100848-60.620659-24.169469-76.185146l-32.633235-19.339464L783.819802 277.715069c0-11.04966-8.958022-20.007683-20.007683-20.007683L647.769196 257.707386 647.769196 147.665131c0-11.04966-8.958022-20.007683-20.007683-20.007683l-94.0357 0L533.725814 83.640955c0-11.04966-8.958022-20.007683-20.007683-20.007683s-20.007683 8.958022-20.007683 20.007683l0 44.016493-94.0357 0c-11.04966 0-20.007683 8.958022-20.007683 20.007683l0 110.042255L263.622096 257.707386c-11.04966 0-20.007683 8.958022-20.007683 20.007683l0 292.109917-30.990828 18.183128c-27.442002 16.09763-37.554314 50.880831-23.023366 79.184457l101.656261 197.990307c-30.30419 2.330068-54.564733 13.168927-80.0645 24.586978-33.800827 15.136745-68.753897 30.78719-126.411061 30.78719-11.04966 0-20.007683 8.958022-20.007683 20.007683s8.958022 20.007683 20.007683 20.007683c66.206888 0 106.879216-18.21178 142.764518-34.280758 25.847691-11.574616 48.171116-21.570271 75.728752-21.570271 31.195489 0 61.411675 12.44238 93.403297 25.613354 35.950793 14.804171 73.127508 30.110785 116.185162 30.110785 42.176588 0 82.113159-14.863523 120.733759-29.235858 36.45733-13.568017 70.892607-26.38288 104.934934-26.38288 31.435966 0 54.845119 11.105942 81.953524 23.967878 31.562856 14.97404 67.339688 31.94762 120.123868 31.94762 11.048637 0 20.007683-8.958022 20.007683-20.007683S951.656345 920.725892 940.606685 920.725892zM419.681408 167.672814l188.0714 0 0 90.034573L419.681408 257.707386 419.681408 167.672814zM283.629779 297.722752l116.043946 0L627.761514 297.722752l116.043946 0 0 249.40735L524.360516 417.080164c-6.265704-3.714602-14.047947-3.731998-20.325931-0.045025L283.629779 546.347273 283.629779 297.722752zM619.638509 893.705492c-36.926004 13.744026-71.804373 26.723641-106.776885 26.723641-35.142381 0-67.107397-13.161764-100.949156-27.096125-23.830755-9.81146-48.230468-19.840884-74.073042-25.024953L225.196948 648.915299c-4.843308-9.434883-1.473561-21.027919 7.674796-26.39516l258.837116-151.85864 0 233.216599c0 11.048637 8.958022 20.007683 20.007683 20.007683s20.007683-8.959046 20.007683-20.007683L531.724227 467.959971 796.053428 624.608707c8.755408 5.187139 12.219299 16.10377 8.055466 25.394367l-97.518011 217.556944C676.770717 872.462678 647.849014 883.207393 619.638509 893.705492z" p-id="2501" fill="#ffffff"></path><path d="M403.675876 343.739808l-64.024176 0c-11.048637 0-20.007683 8.958022-20.007683 20.007683 0 11.04966 8.958022 20.007683 20.007683 20.007683l64.024176 0c11.048637 0 20.007683-8.958022 20.007683-20.007683C423.683559 352.698854 414.724513 343.739808 403.675876 343.739808z" p-id="2502" fill="#ffffff"></path><path d="M707.791222 363.747491c0-11.048637-8.958022-20.007683-20.007683-20.007683L497.711576 343.739808c-11.048637 0-20.007683 8.958022-20.007683 20.007683 0 11.04966 8.958022 20.007683 20.007683 20.007683l190.072987 0C698.833199 383.755174 707.791222 374.797152 707.791222 363.747491z" p-id="2503" fill="#ffffff"></path></svg>